#define modem_width 29
#define modem_height 12
static unsigned char modem_bits[] = {
   0x00, 0xff, 0x1f, 0x00, 0xe0, 0x00, 0xe0, 0x00, 0x10, 0x00, 0x00, 0x01,
   0x10, 0xfe, 0x0f, 0x01, 0x10, 0x01, 0x10, 0x01, 0xf8, 0x01, 0x18, 0x03,
   0xfc, 0x03, 0xfc, 0x07, 0xff, 0xff, 0xff, 0x1f, 0x01, 0x00, 0x00, 0x10,
   0x01, 0x00, 0x00, 0x10, 0x01, 0x00, 0x00, 0x10, 0xff, 0xff, 0xff, 0x1f};
