#define pserver_width 40
#define pserver_height 7
static unsigned char emulex_bits[] = {
 0xfe,0xff,0xff,0xff,0x7f,0x05,0x00,0x08,0x00,0x80,0xf5,0x1b,0x08,0x00,0x80,
 0x05,0x00,0x08,0x00,0x80,0xf9,0xff,0x07,0x00,0x80,0x01,0x00,0x00,0x00,0x80,
 0xfe,0xff,0xff,0xff,0x7f};
