#define tkiNode_width 22
#define tkiNode_height 22
static char tkiNode_bits[] = {
   0xff, 0xff, 0x3f, 0x01, 0x00, 0x20, 0xf9, 0xff, 0x27, 0x09, 0x00, 0x24,
   0x09, 0x1f, 0x24, 0x89, 0x39, 0x24, 0xc9, 0x71, 0x24, 0xc9, 0x71, 0x24,
   0x89, 0x70, 0x24, 0x09, 0x78, 0x24, 0x09, 0x3c, 0x24, 0x09, 0x1c, 0x24,
   0x09, 0x0e, 0x24, 0x09, 0x06, 0x24, 0x09, 0x06, 0x24, 0x09, 0x00, 0x24,
   0x09, 0x06, 0x24, 0x09, 0x06, 0x24, 0x09, 0x00, 0x24, 0xf9, 0xff, 0x27,
   0x01, 0x00, 0x20, 0xff, 0xff, 0x3f};
