#define bone_width 50
#define bone_height 18
static unsigned char bone_bits[] = {
   0x3c, 0x00, 0x00, 0x00, 0x00, 0xf0, 0x00, 0x42, 0x00, 0x00, 0x00, 0x00,
   0x08, 0x01, 0x42, 0x00, 0x00, 0x00, 0x00, 0x08, 0x01, 0x41, 0x00, 0x00,
   0x00, 0x00, 0x08, 0x02, 0x81, 0x00, 0x00, 0x00, 0x00, 0x04, 0x02, 0x02,
   0xff, 0xff, 0xff, 0xff, 0x03, 0x01, 0x04, 0x00, 0x00, 0x00, 0x00, 0x80,
   0x00, 0x08, 0x00, 0x00, 0x00, 0x00, 0x40, 0x00, 0x88, 0x88, 0x88, 0x88,
   0x88, 0x48, 0x00, 0x08, 0x22, 0x22, 0x22, 0x22, 0x42, 0x00, 0x08, 0x00,
   0x00, 0x00, 0x00, 0x40, 0x00, 0x04, 0x00, 0x00, 0x00, 0x00, 0x80, 0x00,
   0x02, 0xff, 0xff, 0xff, 0xff, 0x03, 0x01, 0x81, 0x00, 0x00, 0x00, 0x00,
   0x04, 0x02, 0x41, 0x00, 0x00, 0x00, 0x00, 0x08, 0x02, 0x42, 0x00, 0x00,
   0x00, 0x00, 0x08, 0x01, 0x42, 0x00, 0x00, 0x00, 0x00, 0x08, 0x01, 0x3c,
   0x00, 0x00, 0x00, 0x00, 0xf0, 0x00};
