#define Box_width 18
#define Box_height 9
static unsigned char Box_bits[] = {
   0xff, 0xff, 0x03, 0x01, 0x00, 0x02, 0x01, 0x00, 0x02, 0x01, 0x00, 0x02,
   0x01, 0x00, 0x02, 0x01, 0x00, 0x02, 0x01, 0x00, 0x02, 0x01, 0x00, 0x02,
   0xff, 0xff, 0x03};
