#define bus_width 70
#define bus_height 30
static unsigned char bus_bits[] = {
   0x00, 0x00, 0x00, 0x00, 0x00, 0x00, 0x00, 0x00, 0x00, 0xe0, 0x03, 0x00,
   0x00, 0x00, 0x00, 0x00, 0x00, 0x00, 0x20, 0x02, 0x00, 0xc0, 0x07, 0x00,
   0x00, 0x3e, 0x00, 0x20, 0x02, 0x00, 0x40, 0x04, 0x00, 0x00, 0x22, 0x00,
   0x20, 0x02, 0x3e, 0x40, 0x04, 0xf8, 0x00, 0x22, 0x00, 0xf0, 0x07, 0x22,
   0x40, 0x04, 0x88, 0x00, 0x22, 0x00, 0xf8, 0x0f, 0x22, 0xe0, 0x0f, 0x88,
   0x00, 0x7f, 0x00, 0x80, 0x00, 0x22, 0xf0, 0x1f, 0x88, 0x80, 0xff, 0x00,
   0x80, 0x00, 0x7f, 0x00, 0x01, 0xfc, 0x01, 0x08, 0x00, 0x80, 0x80, 0xff,
   0x00, 0x01, 0xfe, 0x03, 0x08, 0x00, 0x80, 0x00, 0x08, 0x00, 0x01, 0x20,
   0x00, 0x08, 0x00, 0x80, 0x00, 0x08, 0x00, 0x01, 0x20, 0x00, 0x08, 0x00,
   0x80, 0x00, 0x08, 0x00, 0x01, 0x20, 0x00, 0x08, 0x00, 0xfe, 0xff, 0xff,
   0xff, 0xff, 0xff, 0xff, 0xff, 0x1f, 0xfe, 0xff, 0xff, 0xff, 0xff, 0xff,
   0xff, 0xff, 0x1f, 0x40, 0x80, 0x00, 0x01, 0x04, 0x20, 0x20, 0x80, 0x00,
   0x40, 0x80, 0x00, 0x01, 0x04, 0x20, 0x20, 0x80, 0x00, 0x40, 0x80, 0x00,
   0x01, 0x04, 0x20, 0x20, 0x80, 0x00, 0x40, 0x80, 0x00, 0x01, 0x04, 0x20,
   0xf8, 0x80, 0x00, 0x40, 0x80, 0x00, 0x01, 0x1f, 0x20, 0x88, 0x80, 0x00,
   0x40, 0xe0, 0x03, 0x01, 0x11, 0x20, 0x88, 0x80, 0x00, 0x40, 0x20, 0x02,
   0x01, 0x11, 0x20, 0x88, 0xe0, 0x03, 0xf0, 0x21, 0x02, 0x01, 0x11, 0x20,
   0xfc, 0x21, 0x02, 0x10, 0x21, 0xc2, 0x87, 0x3f, 0xf8, 0xfe, 0x23, 0x02,
   0x10, 0xf1, 0x47, 0xc4, 0x7f, 0x88, 0x00, 0x20, 0x02, 0x10, 0xf9, 0x4f,
   0x04, 0x00, 0x88, 0x00, 0xf0, 0x07, 0xf8, 0x03, 0x40, 0x04, 0x00, 0x88,
   0x00, 0xf8, 0x0f, 0xfc, 0x07, 0xe0, 0x0f, 0x00, 0xfc, 0x01, 0x00, 0x00,
   0x00, 0x00, 0xf0, 0x1f, 0x00, 0xfe, 0x03, 0x00, 0x00, 0x00, 0x00, 0x00,
   0x00, 0x00, 0x00, 0x00, 0x00, 0x00};
