#define DEC-Server_width 38
#define DEC-Server_height 47
static unsigned char DEC-Server_bits[] = {
   0xfc, 0xff, 0xff, 0xff, 0x0f, 0x42, 0x15, 0x04, 0x00, 0x10, 0xa2, 0x0a,
   0x00, 0x00, 0x10, 0xfa, 0xff, 0xff, 0xff, 0x1f, 0x02, 0x00, 0x00, 0x00,
   0x10, 0x02, 0x00, 0x04, 0x00, 0x10, 0x02, 0x00, 0x00, 0x00, 0x10, 0x02,
   0x00, 0x00, 0x00, 0x10, 0x02, 0x00, 0x04, 0x00, 0x10, 0x02, 0x00, 0x00,
   0x00, 0x10, 0x02, 0x00, 0x00, 0x00, 0x10, 0x02, 0x00, 0x04, 0x00, 0x10,
   0x02, 0x00, 0x00, 0x00, 0x10, 0x02, 0x00, 0x00, 0x00, 0x10, 0x02, 0x00,
   0x04, 0x00, 0x10, 0x02, 0x00, 0x00, 0x00, 0x10, 0x02, 0x00, 0x00, 0x00,
   0x10, 0x02, 0x00, 0x04, 0x00, 0x10, 0x02, 0x00, 0x00, 0x00, 0x10, 0x02,
   0x00, 0x00, 0x00, 0x10, 0x02, 0x00, 0x04, 0x00, 0x10, 0x02, 0x00, 0x00,
   0x00, 0x10, 0x02, 0x00, 0x00, 0x00, 0x10, 0x02, 0x00, 0x04, 0x00, 0x10,
   0x02, 0x00, 0x00, 0x00, 0x10, 0x02, 0x00, 0x00, 0x00, 0x10, 0x02, 0x00,
   0x04, 0x00, 0x10, 0x02, 0x00, 0x00, 0x00, 0x10, 0x02, 0x00, 0x00, 0x00,
   0x10, 0x02, 0x00, 0x04, 0x00, 0x10, 0x02, 0x00, 0x00, 0x00, 0x10, 0x02,
   0x00, 0x00, 0x00, 0x10, 0x02, 0x00, 0x04, 0x00, 0x10, 0x02, 0x00, 0x00,
   0x00, 0x10, 0xfa, 0xff, 0xff, 0xff, 0x17, 0x02, 0x00, 0x04, 0x00, 0x10,
   0xfa, 0xff, 0xff, 0xff, 0x17, 0x02, 0x00, 0x00, 0x00, 0x10, 0xfa, 0xff,
   0xff, 0xff, 0x17, 0x02, 0x00, 0x00, 0x00, 0x10, 0xfa, 0xff, 0xff, 0xff,
   0x17, 0x02, 0x00, 0x04, 0x00, 0x10, 0x02, 0x00, 0x00, 0x00, 0x10, 0xff,
   0xff, 0xff, 0xf7, 0x3f, 0x03, 0x00, 0x00, 0x00, 0x30, 0x03, 0x00, 0x00,
   0x00, 0x30, 0xff, 0xff, 0xff, 0xff, 0x3f};
