#define HPsjMask_width 34
#define HPsjMask_height 11
static unsigned char HPsjMask_bits[] = {
  0xf8, 0xff, 0xff, 0x7f, 0x00, 0xff, 0xff, 0xff, 0xff, 0x03, 0xff, 0xff,
  0xff, 0xff, 0x03, 0xff, 0xff, 0xff, 0xff, 0x03, 0xff, 0xff, 0xff, 0xff,
  0x03, 0xff, 0xff, 0xff, 0xff, 0x03, 0xff, 0xff, 0xff, 0xff, 0x03, 0xff,
  0xff, 0xff, 0xff, 0x03, 0xfe, 0xff, 0xff, 0xff, 0x01, 0xfe, 0xff, 0xff,
  0xff, 0x01, 0xfe, 0xff, 0xff, 0xff, 0x01, };
