#define NFS-server_width 13
#define NFS-server_height 24
static unsigned char NFS-server_bits[] = {
   0xf0, 0x01, 0x0c, 0x06, 0x02, 0x08, 0x02, 0x08, 0x01, 0x10, 0x01, 0x10,
   0x01, 0x10, 0x03, 0x18, 0x03, 0x18, 0x0d, 0x16, 0xf1, 0x11, 0x01, 0x10,
   0x01, 0x10, 0x01, 0x10, 0x01, 0x10, 0x01, 0x10, 0x01, 0x10, 0x01, 0x10,
   0x01, 0x10, 0x01, 0x10, 0x02, 0x08, 0x02, 0x08, 0x0c, 0x06, 0xf0, 0x01};
