#define pointer_width 40
#define pointer_height 31
static unsigned char pointer_bits[] = {
   0x00, 0x00, 0xfc, 0x00, 0x00, 0x00, 0x00, 0xc4, 0x00, 0x00, 0x00, 0x00,
   0x24, 0x01, 0x00, 0x00, 0x00, 0x1c, 0x01, 0x00, 0x00, 0x00, 0x04, 0x01,
   0x00, 0x00, 0x00, 0x04, 0x01, 0x00, 0x00, 0x00, 0x82, 0x01, 0x00, 0x00,
   0x00, 0x9b, 0x00, 0x00, 0x00, 0x80, 0x49, 0x00, 0x00, 0x00, 0xe0, 0x40,
   0x00, 0x00, 0x00, 0x3c, 0x40, 0x00, 0x00, 0x00, 0x06, 0x40, 0xff, 0x1f,
   0x80, 0x01, 0xc0, 0x00, 0xe0, 0x40, 0x00, 0x00, 0x00, 0x90, 0x30, 0x20,
   0x00, 0x00, 0x90, 0x0f, 0x18, 0xc0, 0x00, 0xa0, 0x00, 0x86, 0x3b, 0xf0,
   0x7f, 0x00, 0x00, 0x80, 0x1f, 0x00, 0x00, 0x00, 0x80, 0x0f, 0x00, 0x80,
   0x6a, 0x00, 0x08, 0x00, 0x00, 0x00, 0x00, 0x18, 0x00, 0x00, 0x00, 0x80,
   0x07, 0x00, 0x00, 0x00, 0x80, 0x07, 0x00, 0x00, 0x85, 0x01, 0x08, 0x00,
   0x00, 0x08, 0x02, 0x08, 0x00, 0x00, 0x00, 0x84, 0x07, 0x00, 0x00, 0x00,
   0x80, 0x03, 0x00, 0x3f, 0x00, 0x00, 0x04, 0x00, 0xc0, 0x03, 0x00, 0x04,
   0x00, 0x00, 0x1c, 0x80, 0x07, 0x00, 0x00, 0xe0, 0x7f, 0x00, 0x00};
