#define tkined_width 76
#define tkined_height 53
static unsigned char tkined_bits[] = {
   0xff, 0xff, 0xff, 0xff, 0xff, 0xff, 0xff, 0xff, 0xff, 0x0f, 0x01, 0x08,
   0x00, 0x00, 0x00, 0x00, 0x00, 0x00, 0x00, 0x08, 0x01, 0xe8, 0x71, 0x1c,
   0x8f, 0xc7, 0xe3, 0x38, 0x80, 0x0b, 0x01, 0x08, 0x00, 0x00, 0x00, 0x00,
   0x00, 0x00, 0x00, 0x08, 0xff, 0xff, 0xff, 0xff, 0xff, 0xff, 0xff, 0xff,
   0xff, 0x0f, 0x01, 0x08, 0x00, 0x00, 0x00, 0x00, 0x00, 0x00, 0x00, 0x08,
   0xf9, 0x09, 0x00, 0x00, 0x00, 0x00, 0x00, 0x00, 0x00, 0x08, 0x01, 0x08,
   0x30, 0x00, 0x00, 0x00, 0x00, 0x00, 0x00, 0x08, 0x01, 0x08, 0x30, 0x00,
   0x00, 0x00, 0x00, 0x00, 0x00, 0x08, 0xf1, 0x08, 0x30, 0x00, 0x00, 0x00,
   0x00, 0x00, 0x00, 0x08, 0x01, 0x08, 0x30, 0x00, 0x00, 0x00, 0x00, 0x00,
   0x00, 0x08, 0x01, 0x08, 0x30, 0x00, 0xc0, 0x07, 0x00, 0x3e, 0x00, 0x08,
   0xf9, 0x09, 0x30, 0x00, 0x40, 0x04, 0x00, 0x22, 0x00, 0x08, 0x01, 0x08,
   0x30, 0x00, 0x40, 0x04, 0x00, 0x22, 0x00, 0x08, 0x01, 0x08, 0x30, 0x00,
   0xc0, 0x07, 0x00, 0x3e, 0x00, 0x08, 0xf1, 0x08, 0x30, 0x00, 0xe0, 0x0f,
   0x00, 0x7f, 0x00, 0x08, 0x01, 0x08, 0x30, 0x00, 0xf0, 0x1f, 0x80, 0xff,
   0x00, 0x08, 0x01, 0x08, 0x30, 0x00, 0x00, 0x01, 0x00, 0x08, 0x00, 0x08,
   0xf9, 0x09, 0x30, 0x00, 0x00, 0x01, 0x00, 0x08, 0x00, 0x08, 0x01, 0x08,
   0x30, 0x00, 0x00, 0x01, 0x00, 0x08, 0x00, 0x08, 0x01, 0x08, 0x30, 0x00,
   0x00, 0x01, 0x00, 0x08, 0x00, 0x08, 0xf1, 0x08, 0x30, 0xc0, 0xff, 0xff,
   0xff, 0xff, 0xff, 0x09, 0x01, 0x08, 0x30, 0xc0, 0xff, 0xff, 0xff, 0xff,
   0xff, 0x09, 0x01, 0x08, 0x30, 0x00, 0x01, 0x00, 0x80, 0x00, 0x00, 0x08,
   0xf9, 0x08, 0x30, 0x00, 0x01, 0x00, 0x80, 0x00, 0x00, 0x08, 0x89, 0x08,
   0x30, 0x00, 0x01, 0x00, 0x80, 0x00, 0x00, 0x08, 0x89, 0x08, 0x30, 0x00,
   0x01, 0x00, 0x80, 0x00, 0x00, 0x08, 0xf9, 0x08, 0x30, 0x00, 0x01, 0x00,
   0x80, 0x00, 0x00, 0x08, 0xfd, 0x09, 0x30, 0xf0, 0x0f, 0x00, 0xe0, 0x03,
   0x00, 0x08, 0x01, 0x08, 0x30, 0xf0, 0x0f, 0x00, 0x20, 0x02, 0x00, 0x08,
   0x01, 0x08, 0xf0, 0x3f, 0x0c, 0x00, 0x20, 0x02, 0x00, 0x08, 0x01, 0x08,
   0x30, 0x10, 0x08, 0x00, 0xe0, 0x03, 0x00, 0x08, 0xf9, 0x09, 0x30, 0x00,
   0x00, 0x00, 0xf0, 0x07, 0x00, 0x08, 0x01, 0x08, 0x30, 0x00, 0x00, 0x00,
   0xf8, 0x0f, 0x00, 0x08, 0x01, 0x08, 0x30, 0x00, 0x00, 0x00, 0x00, 0x00,
   0x00, 0x08, 0xf1, 0x08, 0x30, 0x00, 0x00, 0x00, 0x00, 0x00, 0x00, 0x08,
   0x01, 0x08, 0x30, 0x00, 0x00, 0x00, 0x00, 0x00, 0x00, 0x08, 0x01, 0x08,
   0x30, 0x00, 0x00, 0x00, 0x00, 0x00, 0x00, 0x08, 0x31, 0x08, 0x30, 0x00,
   0x00, 0x00, 0x00, 0x00, 0x00, 0x08, 0xc9, 0x08, 0x30, 0x00, 0x00, 0x00,
   0x00, 0x00, 0x00, 0x08, 0x05, 0x09, 0x30, 0x00, 0x00, 0x00, 0x00, 0x00,
   0x00, 0x08, 0x03, 0x0a, 0x30, 0x00, 0x00, 0x00, 0x00, 0x00, 0x00, 0x08,
   0x0d, 0x09, 0x30, 0xc0, 0x07, 0x00, 0x00, 0x00, 0x00, 0x08, 0xf1, 0x08,
   0x30, 0x40, 0x04, 0x00, 0x00, 0x00, 0x00, 0x08, 0x01, 0x08, 0xf0, 0x7f,
   0x04, 0x00, 0x00, 0x00, 0x00, 0x08, 0x01, 0x08, 0x30, 0xc0, 0x07, 0x00,
   0x00, 0x00, 0x00, 0x08, 0xf9, 0x08, 0x30, 0xe0, 0x0f, 0x00, 0x00, 0x00,
   0x00, 0x08, 0x41, 0x08, 0x30, 0xf0, 0x1f, 0x00, 0x00, 0x00, 0x00, 0x08,
   0x39, 0x08, 0x30, 0x00, 0x00, 0x00, 0x00, 0x00, 0x00, 0x08, 0x01, 0x08,
   0x30, 0x00, 0x00, 0x00, 0x00, 0x00, 0x00, 0x08, 0x01, 0x08, 0x30, 0x00,
   0x00, 0x00, 0x00, 0x00, 0x00, 0x08, 0x01, 0x08, 0x00, 0x00, 0x00, 0x00,
   0x00, 0x00, 0x00, 0x08, 0xff, 0xff, 0xff, 0xff, 0xff, 0xff, 0xff, 0xff,
   0xff, 0x0f};
