#define tkiLink_width 22
#define tkiLink_height 22
static char tkiLink_bits[] = {
   0xff, 0xff, 0x3f, 0x01, 0x00, 0x20, 0x01, 0x00, 0x20, 0x79, 0x00, 0x20,
   0x49, 0x00, 0x20, 0x49, 0x00, 0x20, 0x79, 0x00, 0x20, 0x81, 0x00, 0x20,
   0x01, 0x01, 0x20, 0x01, 0x02, 0x20, 0x01, 0x04, 0x20, 0x01, 0x08, 0x20,
   0x01, 0x10, 0x20, 0x01, 0x20, 0x20, 0x01, 0x40, 0x20, 0x01, 0x80, 0x27,
   0x01, 0x80, 0x24, 0x01, 0x80, 0x24, 0x01, 0x80, 0x27, 0x01, 0x00, 0x20,
   0x01, 0x00, 0x20, 0xff, 0xff, 0x3f};
