#define tkiNetwork_width 22
#define tkiNetwork_height 22
static char tkiNetwork_bits[] = {
   0xff, 0xff, 0x3f, 0x01, 0x00, 0x20, 0x01, 0x00, 0x20, 0x01, 0x00, 0x20,
   0x01, 0x00, 0x20, 0xfd, 0xff, 0x2f, 0xfd, 0xff, 0x2f, 0xfd, 0xff, 0x2f,
   0xfd, 0xff, 0x2f, 0xfd, 0xff, 0x2f, 0x01, 0x00, 0x20, 0x01, 0x00, 0x20,
   0x01, 0x00, 0x20, 0x01, 0x00, 0x20, 0xfd, 0xff, 0x2f, 0xfd, 0xff, 0x2f,
   0x01, 0x00, 0x20, 0x01, 0x00, 0x20, 0x01, 0x00, 0x20, 0x01, 0x00, 0x20,
   0x01, 0x00, 0x20, 0xff, 0xff, 0x3f};
