#define tkiResize_width 22
#define tkiResize_height 22
static char tkiResize_bits[] = {
   0xff, 0xff, 0x3f, 0x01, 0x00, 0x20, 0x7d, 0x00, 0x20, 0x05, 0x00, 0x20,
   0xf5, 0x00, 0x20, 0x15, 0x00, 0x20, 0x15, 0x00, 0x20, 0x11, 0x00, 0x20,
   0x01, 0x00, 0x20, 0x01, 0x00, 0x20, 0x01, 0x00, 0x20, 0x01, 0x00, 0x20,
   0x01, 0x00, 0x20, 0x01, 0x00, 0x20, 0x01, 0x00, 0x22, 0x01, 0x00, 0x2a,
   0x01, 0x00, 0x2a, 0x01, 0xc0, 0x2b, 0x01, 0x00, 0x28, 0x01, 0x80, 0x2f,
   0x01, 0x00, 0x20, 0xff, 0xff, 0x3f};
