#define tkiSelect_width 22
#define tkiSelect_height 22
static char tkiSelect_bits[] = {
   0xff, 0xff, 0x3f, 0x01, 0x00, 0x20, 0x01, 0x00, 0x20, 0x19, 0x00, 0x20,
   0x79, 0x00, 0x20, 0xf1, 0x01, 0x20, 0xf1, 0x07, 0x20, 0xe1, 0x1f, 0x20,
   0xe1, 0x7f, 0x20, 0xc1, 0x0f, 0x20, 0xc1, 0x0f, 0x20, 0x81, 0x1f, 0x20,
   0x81, 0x39, 0x20, 0x01, 0x71, 0x20, 0x01, 0xe1, 0x20, 0x01, 0xc0, 0x21,
   0x01, 0x80, 0x23, 0x01, 0x00, 0x27, 0x01, 0x00, 0x26, 0x01, 0x00, 0x20,
   0x01, 0x00, 0x20, 0xff, 0xff, 0x3f};
