#define tkiText_width 22
#define tkiText_height 22
static char tkiText_bits[] = {
   0xff, 0xff, 0x3f, 0x01, 0x00, 0x20, 0x01, 0x00, 0x20, 0x19, 0x00, 0x20,
   0xa5, 0x7b, 0x2e, 0x25, 0x00, 0x20, 0x3d, 0x00, 0x20, 0x25, 0x6f, 0x2f,
   0x25, 0x00, 0x20, 0x25, 0x00, 0x20, 0x01, 0xef, 0x27, 0x01, 0x00, 0x20,
   0x01, 0x00, 0x20, 0xf5, 0xdd, 0x2b, 0x01, 0x00, 0x20, 0x01, 0x00, 0x20,
   0x3d, 0xf7, 0x2c, 0x01, 0x00, 0x20, 0x01, 0x00, 0x20, 0xfd, 0x7d, 0x2e,
   0x01, 0x00, 0x20, 0xff, 0xff, 0x3f};
