#define action_width 48
#define action_height 38
static unsigned char action_bits[] = {
   0x00, 0x00, 0x00, 0x00, 0xf0, 0x01, 0x00, 0x00, 0x00, 0x00, 0x4c, 0x06,
   0x00, 0x00, 0x00, 0x00, 0x43, 0x18, 0x00, 0x00, 0x00, 0x80, 0x40, 0x20,
   0x00, 0x00, 0x00, 0x80, 0x40, 0x20, 0x00, 0x00, 0x00, 0x40, 0x40, 0x40,
   0xff, 0xff, 0xff, 0x43, 0x40, 0x40, 0x01, 0x00, 0x00, 0x22, 0x40, 0x80,
   0x01, 0x00, 0x00, 0x22, 0x40, 0x80, 0x01, 0x00, 0x00, 0xe2, 0x7f, 0x80,
   0xe1, 0x07, 0xf0, 0x23, 0xa0, 0x80, 0x21, 0x04, 0x10, 0x22, 0x10, 0x81,
   0x21, 0x04, 0x10, 0x42, 0x08, 0x42, 0x21, 0x04, 0x10, 0x42, 0x04, 0x44,
   0x21, 0x84, 0x1f, 0x82, 0x02, 0x28, 0x3f, 0x84, 0x10, 0x82, 0x01, 0x30,
   0x21, 0x84, 0x10, 0x02, 0x03, 0x18, 0x21, 0x84, 0x10, 0x02, 0x0c, 0x06,
   0x21, 0x84, 0x10, 0x02, 0xf0, 0x01, 0x21, 0xfc, 0x10, 0x02, 0x00, 0x00,
   0x21, 0x84, 0x10, 0xfe, 0xff, 0x03, 0x21, 0x84, 0x10, 0x02, 0x00, 0x02,
   0x21, 0x84, 0x10, 0x02, 0x00, 0x02, 0xff, 0xff, 0xff, 0x03, 0x00, 0x02,
   0x00, 0x00, 0x01, 0x00, 0x00, 0x02, 0x00, 0x00, 0x01, 0x00, 0x03, 0x02,
   0x00, 0x00, 0x01, 0x00, 0x03, 0x02, 0x00, 0x00, 0x01, 0x80, 0x07, 0x02,
   0x00, 0x00, 0xff, 0xff, 0xff, 0x03, 0x00, 0x00, 0x01, 0x81, 0x1f, 0x02,
   0x00, 0x00, 0x01, 0xc3, 0x1f, 0x02, 0x00, 0x00, 0x01, 0xe3, 0x1f, 0x02,
   0x00, 0x00, 0x01, 0xf7, 0x3f, 0x02, 0x00, 0x00, 0x01, 0xff, 0x7f, 0x02,
   0x00, 0x00, 0x31, 0xff, 0x7f, 0x02, 0x00, 0x00, 0xf9, 0xff, 0xff, 0x02,
   0x00, 0x00, 0xff, 0xff, 0xff, 0x03, 0x00, 0x00, 0xff, 0xff, 0xff, 0x03};
