#define backbone_width 60
#define backbone_height 24
static unsigned char backbone_bits[] = {
   0x80, 0x01, 0xc0, 0x00, 0x60, 0x00, 0x0c, 0x00, 0x40, 0x02, 0x20, 0x01,
   0x90, 0x00, 0x12, 0x00, 0x20, 0x04, 0x10, 0x02, 0x08, 0x01, 0x21, 0x00,
   0x10, 0x02, 0x08, 0x01, 0x84, 0x80, 0x10, 0x00, 0x08, 0x01, 0x84, 0x00,
   0x42, 0x40, 0x08, 0x00, 0x87, 0xff, 0xc3, 0xff, 0xe1, 0x3f, 0xfc, 0x0f,
   0x00, 0x00, 0x01, 0x80, 0x00, 0x10, 0x00, 0x02, 0x00, 0x7e, 0x01, 0xbf,
   0xe0, 0x17, 0xfe, 0x02, 0xff, 0x81, 0xff, 0xc0, 0x1f, 0xf8, 0x01, 0x0f,
   0x00, 0x00, 0x00, 0x00, 0x00, 0x00, 0x00, 0x00, 0xc1, 0xff, 0xf0, 0x1f,
   0xf8, 0x87, 0x3f, 0x08, 0x3e, 0x11, 0x8f, 0xea, 0x57, 0x79, 0xd1, 0x07,
   0x00, 0x15, 0x80, 0x08, 0x10, 0x01, 0x15, 0x00, 0x00, 0x11, 0x80, 0x0a,
   0x50, 0x01, 0x11, 0x00, 0x00, 0x15, 0x80, 0x08, 0x10, 0x01, 0x15, 0x00,
   0x00, 0x11, 0x80, 0x0a, 0x50, 0x01, 0x11, 0x00, 0x00, 0x15, 0x80, 0x08,
   0x10, 0x01, 0x15, 0x00, 0x00, 0x11, 0x80, 0x0a, 0x50, 0x01, 0x11, 0x00,
   0x00, 0x15, 0x80, 0x08, 0x10, 0x01, 0x15, 0x00, 0x00, 0x11, 0x80, 0x0a,
   0x50, 0x01, 0x11, 0x00, 0x00, 0x15, 0x80, 0x08, 0x10, 0x01, 0x15, 0x00,
   0x00, 0x11, 0x80, 0x0a, 0x50, 0x01, 0x11, 0x00, 0x30, 0x15, 0x8f, 0xe8,
   0x13, 0x7d, 0x15, 0x07, 0xcf, 0xff, 0xf0, 0x1f, 0xfc, 0x83, 0xff, 0x08};
