#define bigBox_width 24
#define bigBox_height 12
static unsigned char bigBox_bits[] = {
   0xff, 0xff, 0xff, 0x01, 0x00, 0x80, 0x01, 0x00, 0x80, 0x01, 0x00, 0x80,
   0x01, 0x00, 0x80, 0x01, 0x00, 0x80, 0x01, 0x00, 0x80, 0x01, 0x00, 0x80,
   0x01, 0x00, 0x80, 0x01, 0x00, 0x80, 0x01, 0x00, 0x80, 0xff, 0xff, 0xff};
