#define clock_width 16
#define clock_height 58
static unsigned char clock_bits[] = {
   0xc0, 0x07, 0x30, 0x19, 0x08, 0x20, 0x08, 0x20, 0x44, 0x40, 0x84, 0x40,
   0x0c, 0x61, 0x84, 0x40, 0x44, 0x40, 0x28, 0x20, 0x08, 0x20, 0x38, 0x39,
   0xcf, 0xe7, 0x08, 0x21, 0x08, 0x21, 0x08, 0x21, 0x08, 0x21, 0x68, 0x21,
   0x68, 0x21, 0x68, 0x21, 0x68, 0x21, 0x68, 0x21, 0x68, 0x21, 0x08, 0x21,
   0x08, 0x2d, 0x08, 0x2d, 0x08, 0x2d, 0x08, 0x2d, 0x08, 0x2d, 0x08, 0x2d,
   0x08, 0x2d, 0x08, 0x21, 0x08, 0x21, 0x08, 0x21, 0x08, 0x21, 0x88, 0x22,
   0x48, 0x24, 0x88, 0x22, 0x08, 0x21, 0x08, 0x20, 0x08, 0x20, 0x08, 0x20,
   0x08, 0x20, 0x08, 0x20, 0x08, 0x20, 0xf8, 0x3f, 0x08, 0x20, 0x08, 0x20,
   0x08, 0x20, 0x08, 0x20, 0x08, 0x20, 0x08, 0x20, 0x08, 0x20, 0x08, 0x20,
   0x0c, 0x60, 0xfe, 0xff, 0x02, 0x80, 0xfe, 0xff};
