#define connectMaskkk_width 11
#define connectMaskkk_height 11
static unsigned char connectMaskkk_bits[] = {
   0xf8, 0x00, 0xfe, 0x03, 0xfe, 0x03, 0xff, 0x07, 0xff, 0x07, 0xff, 0x07,
   0xff, 0x07, 0xff, 0x07, 0xfe, 0x03, 0xfe, 0x03, 0xf8, 0x00};
