#define corner_width 10
#define corner_height 10
static unsigned char corner_bits[] = {
   0x82, 0x00, 0x41, 0x00, 0x20, 0x00, 0x10, 0x02, 0x08, 0x01, 0x84, 0x00,
   0x42, 0x02, 0x21, 0x01, 0x90, 0x02, 0x48, 0x01};
