#define explode_width 34
#define explode_height 32
static unsigned char explode_bits[] = {
   0x00, 0x40, 0x00, 0x90, 0x00, 0x00, 0x00, 0x94, 0x10, 0x00, 0x00, 0xc4,
   0x10, 0x70, 0x00, 0x40, 0x00, 0x00, 0xf0, 0x00, 0x00, 0x00, 0x00, 0x14,
   0x00, 0x00, 0x80, 0x08, 0x34, 0x00, 0x00, 0x24, 0x00, 0x30, 0x00, 0x20,
   0x79, 0x0d, 0x10, 0x00, 0x00, 0x24, 0x34, 0x00, 0x00, 0x00, 0xfc, 0x39,
   0x10, 0x00, 0x00, 0x0e, 0x16, 0x40, 0x00, 0x00, 0x17, 0xb0, 0x32, 0x00,
   0x88, 0xc1, 0x5f, 0x0d, 0x00, 0xe0, 0x28, 0xab, 0x4a, 0x00, 0x60, 0xaa,
   0xfb, 0x45, 0x00, 0x08, 0x2a, 0xed, 0x0a, 0x00, 0x04, 0xc0, 0x76, 0x05,
   0x00, 0x00, 0xe8, 0xbd, 0x0a, 0x00, 0x00, 0xa0, 0x52, 0x65, 0x00, 0x00,
   0x48, 0xed, 0x0e, 0x00, 0x08, 0xa6, 0x52, 0x10, 0x00, 0x80, 0x40, 0x4d,
   0x40, 0x01, 0x00, 0x80, 0x40, 0x00, 0x00, 0x20, 0x00, 0x60, 0x18, 0x00,
   0x00, 0x00, 0x7c, 0x00, 0x00, 0x00, 0x00, 0x0c, 0x00, 0x00, 0x02, 0x02,
   0x00, 0x00, 0x00, 0x70, 0x00, 0x00, 0x01, 0x00, 0xf3, 0x00, 0x00, 0x00,
   0x00, 0xe0, 0x27, 0x06, 0x00, 0x00, 0x80, 0x03, 0x00, 0x00, 0x00, 0x00,
   0x00, 0x10, 0x00, 0x00};
