#define group_width 46
#define group_height 42
static unsigned char group_bits[] = {
   0x00, 0x00, 0x00, 0x00, 0x00, 0x00, 0x00, 0xfe, 0x00, 0x1f, 0x00, 0x00,
   0xc0, 0x01, 0x8f, 0x60, 0x00, 0x00, 0x20, 0x00, 0x50, 0x80, 0x01, 0x00,
   0x20, 0x00, 0x20, 0x00, 0x02, 0x00, 0x20, 0x00, 0x00, 0x00, 0x02, 0x00,
   0x20, 0x00, 0x00, 0x00, 0x04, 0x00, 0x20, 0x00, 0x00, 0x00, 0x04, 0x00,
   0x40, 0x00, 0x00, 0x00, 0x04, 0x00, 0x40, 0x00, 0x00, 0x00, 0x04, 0x00,
   0x40, 0x00, 0x00, 0x00, 0x0c, 0x00, 0x40, 0x00, 0x00, 0x00, 0xf0, 0x03,
   0x20, 0x00, 0x00, 0x00, 0x00, 0x04, 0x20, 0x00, 0x00, 0x00, 0x00, 0x08,
   0x10, 0x00, 0x00, 0x00, 0x00, 0x08, 0x08, 0x00, 0x00, 0x00, 0x00, 0x10,
   0x04, 0x00, 0x00, 0x00, 0x00, 0x10, 0x04, 0x00, 0x00, 0x00, 0x00, 0x10,
   0x02, 0x00, 0x00, 0x00, 0x00, 0x10, 0x02, 0x00, 0x00, 0x00, 0x00, 0x10,
   0x02, 0x00, 0x00, 0x00, 0x00, 0x08, 0x02, 0x00, 0x00, 0x00, 0x00, 0x04,
   0x02, 0x00, 0x00, 0x00, 0x00, 0x02, 0x04, 0x00, 0x00, 0x00, 0x00, 0x02,
   0x08, 0x00, 0x00, 0x00, 0x00, 0x04, 0x10, 0x00, 0x00, 0x00, 0x00, 0x04,
   0x20, 0x00, 0x00, 0x00, 0x00, 0x08, 0x20, 0x00, 0x00, 0x00, 0x00, 0x08,
   0x40, 0x00, 0x00, 0x00, 0x00, 0x08, 0x40, 0x00, 0x00, 0x00, 0x00, 0x04,
   0x40, 0x00, 0x00, 0x00, 0x1c, 0x02, 0x40, 0x00, 0x00, 0x00, 0xe2, 0x01,
   0x40, 0x00, 0x00, 0x00, 0x02, 0x00, 0x40, 0x00, 0x00, 0x00, 0x02, 0x00,
   0x40, 0x00, 0x00, 0x00, 0x02, 0x00, 0x40, 0x00, 0x00, 0x00, 0x02, 0x00,
   0x40, 0x00, 0x00, 0x00, 0x01, 0x00, 0x80, 0x00, 0x00, 0x18, 0x01, 0x00,
   0x80, 0x00, 0x06, 0xe4, 0x00, 0x00, 0x00, 0x01, 0x19, 0x02, 0x00, 0x00,
   0x00, 0xc6, 0xe0, 0x01, 0x00, 0x00, 0x00, 0x38, 0x00, 0x00, 0x00, 0x00};
