#define HP7550_width 34
#define HP7550_height 13
static unsigned char ims_plotter_bits[] = {
  0xff, 0xff, 0xff, 0xff, 0x03, 0x55, 0x55, 0x55, 0x55, 0x03, 0xab, 0xaa,
  0xaa, 0xaa, 0x02, 0x55, 0x55, 0x55, 0x55, 0x03, 0xab, 0xaa, 0xaa, 0xaa,
  0x02, 0x55, 0x55, 0x55, 0x55, 0x03, 0xaf, 0xaa, 0xff, 0xff, 0x03, 0xf9,
  0xff, 0x00, 0x00, 0x02, 0x01, 0x00, 0x00, 0x00, 0x02, 0x01, 0x00, 0x00,
  0x00, 0x02, 0x01, 0x00, 0x00, 0x00, 0x02, 0x01, 0x00, 0x00, 0x00, 0x02,
  0xff, 0xff, 0xff, 0xff, 0x03, };
