#define HPsj_width 34
#define HPsj_height 11
static unsigned char HPsj_bits[] = {
  0xf8, 0xff, 0xff, 0x7f, 0x00, 0xff, 0xff, 0xff, 0xff, 0x03, 0x01, 0x00,
  0x00, 0x00, 0x02, 0xff, 0xff, 0xff, 0xff, 0x03, 0x01, 0x00, 0x00, 0x00,
  0x02, 0xff, 0xff, 0xff, 0xff, 0x03, 0x01, 0x00, 0x00, 0x00, 0x02, 0xff,
  0xff, 0xff, 0xff, 0x03, 0x02, 0x00, 0x00, 0x00, 0x01, 0x02, 0x00, 0x00,
  0x00, 0x01, 0xfe, 0xff, 0xff, 0xff, 0x01, };
