#define icon_width 76
#define icon_height 57
static unsigned char icon_bits[] = {
   0xff, 0xff, 0xff, 0xff, 0xff, 0xff, 0xff, 0xff, 0xff, 0x0f, 0x00, 0x08,
   0x00, 0x00, 0x00, 0x00, 0x00, 0x00, 0x00, 0x00, 0x00, 0xe8, 0x71, 0x1c,
   0x8f, 0xc7, 0xe3, 0x38, 0x00, 0x0e, 0x00, 0x08, 0x00, 0x00, 0x00, 0x00,
   0x00, 0x00, 0x00, 0x00, 0xff, 0xff, 0xff, 0xff, 0xff, 0xff, 0xff, 0xff,
   0xff, 0x0f, 0x00, 0x08, 0x00, 0x00, 0x00, 0x00, 0x00, 0x00, 0x00, 0x00,
   0xf8, 0x08, 0x00, 0x00, 0x00, 0x00, 0x00, 0x00, 0x00, 0x00, 0x00, 0x08,
   0x30, 0x00, 0x00, 0x00, 0x00, 0x00, 0x00, 0x00, 0x00, 0x08, 0x30, 0x00,
   0x00, 0x00, 0x00, 0x00, 0x00, 0x00, 0xf8, 0x08, 0x30, 0x00, 0x00, 0x00,
   0x00, 0x00, 0x00, 0x00, 0x00, 0x08, 0x30, 0x00, 0x00, 0x00, 0x00, 0x00,
   0x00, 0x00, 0x00, 0x08, 0x30, 0x00, 0xc0, 0x07, 0x00, 0x3e, 0x00, 0x00,
   0xfc, 0x09, 0x30, 0x00, 0x40, 0x04, 0x00, 0x22, 0x00, 0x00, 0x00, 0x08,
   0x30, 0x00, 0x40, 0x04, 0x00, 0x22, 0x00, 0x00, 0x00, 0x08, 0x30, 0x00,
   0xc0, 0x07, 0x00, 0x3e, 0x00, 0x00, 0xf8, 0x08, 0x30, 0x00, 0xe0, 0x0f,
   0x00, 0x7f, 0x00, 0x00, 0x00, 0x08, 0x30, 0x00, 0xf0, 0x1f, 0x80, 0xff,
   0x00, 0x00, 0x00, 0x08, 0x30, 0x00, 0x00, 0x01, 0x00, 0x08, 0x00, 0x00,
   0xfc, 0x09, 0x30, 0x00, 0x00, 0x01, 0x00, 0x08, 0x00, 0x00, 0x00, 0x08,
   0x30, 0x00, 0x00, 0x01, 0x00, 0x08, 0x00, 0x00, 0x00, 0x08, 0x30, 0x00,
   0x00, 0x01, 0x00, 0x08, 0x00, 0x00, 0xf8, 0x08, 0x30, 0xc0, 0xff, 0xff,
   0xff, 0xff, 0xff, 0x01, 0x00, 0x08, 0x30, 0xc0, 0xff, 0xff, 0xff, 0xff,
   0xff, 0x01, 0x00, 0x08, 0x30, 0x00, 0x01, 0x00, 0x80, 0x00, 0x00, 0x00,
   0xf8, 0x08, 0x30, 0x00, 0x01, 0x00, 0x80, 0x00, 0x00, 0x00, 0x88, 0x08,
   0x30, 0x00, 0x01, 0x00, 0x80, 0x00, 0x00, 0x00, 0x88, 0x08, 0x30, 0x00,
   0x01, 0x00, 0x80, 0x00, 0x00, 0x00, 0xf8, 0x08, 0x30, 0x00, 0x01, 0x00,
   0x80, 0x00, 0x00, 0x00, 0xfc, 0x09, 0x30, 0xf0, 0x0f, 0x00, 0xe0, 0x03,
   0x00, 0x00, 0xfe, 0x0b, 0x30, 0xf0, 0x0f, 0x00, 0x20, 0x02, 0x00, 0x00,
   0x00, 0x08, 0xf0, 0x3f, 0x0c, 0x00, 0x20, 0x02, 0x00, 0x00, 0x00, 0x08,
   0x30, 0x10, 0x08, 0x00, 0xe0, 0x03, 0x00, 0x00, 0xfc, 0x09, 0x30, 0x00,
   0x00, 0x00, 0xf0, 0x07, 0x00, 0x00, 0x00, 0x08, 0x30, 0x00, 0x00, 0x00,
   0xf8, 0x0f, 0x00, 0x00, 0x00, 0x08, 0x30, 0x00, 0x00, 0x00, 0x00, 0x00,
   0x00, 0x00, 0xf8, 0x08, 0x30, 0x00, 0x00, 0x00, 0x00, 0x00, 0x00, 0x00,
   0x00, 0x08, 0x30, 0x00, 0x00, 0x00, 0x00, 0x00, 0x00, 0x00, 0x00, 0x08,
   0x30, 0x00, 0x00, 0x00, 0x00, 0x00, 0x00, 0x00, 0x30, 0x08, 0x30, 0x00,
   0x00, 0x00, 0x00, 0x00, 0x00, 0x00, 0xc8, 0x08, 0x30, 0x00, 0x00, 0x00,
   0x00, 0x00, 0x00, 0x00, 0x04, 0x09, 0x30, 0x00, 0x00, 0x00, 0x00, 0x00,
   0x00, 0x00, 0x02, 0x0a, 0x30, 0x00, 0x00, 0x00, 0x00, 0x00, 0x00, 0x00,
   0x0c, 0x09, 0x30, 0xc0, 0x07, 0x00, 0x00, 0x00, 0x00, 0x00, 0xf0, 0x08,
   0x30, 0x40, 0x04, 0x00, 0x00, 0x00, 0x00, 0x00, 0x00, 0x08, 0xf0, 0x7f,
   0x04, 0x00, 0x00, 0x00, 0x00, 0x00, 0x00, 0x08, 0x30, 0xc0, 0x07, 0x00,
   0x00, 0x00, 0x00, 0x00, 0x00, 0x08, 0x30, 0xe0, 0x0f, 0x00, 0x00, 0x00,
   0x00, 0x00, 0xf8, 0x08, 0x30, 0xf0, 0x1f, 0x00, 0x00, 0x00, 0x00, 0x00,
   0x40, 0x08, 0x30, 0x00, 0x00, 0x00, 0x00, 0x00, 0x00, 0x00, 0x38, 0x08,
   0x30, 0x00, 0x00, 0x00, 0x00, 0x00, 0x00, 0x00, 0x00, 0x08, 0x30, 0x00,
   0x00, 0x00, 0x00, 0x00, 0x00, 0x00, 0x00, 0x08, 0x00, 0x00, 0x00, 0x00,
   0x00, 0x00, 0x00, 0x00, 0x00, 0x08, 0x00, 0x00, 0x00, 0x00, 0x00, 0x00,
   0x00, 0x00, 0x00, 0x08, 0x00, 0x00, 0x00, 0x00, 0x00, 0x00, 0x00, 0x00,
   0x00, 0x08, 0x00, 0x00, 0x00, 0x00, 0x00, 0x00, 0x00, 0x00, 0x00, 0x08,
   0x00, 0x00, 0x00, 0x00, 0x00, 0x00, 0x00, 0x00, 0xff, 0xff, 0xff, 0xff,
   0xff, 0xff, 0xff, 0xff, 0xff, 0x0f};
