#define locker_width 35
#define locker_height 40
static unsigned char locker_bits[] = {
   0xff, 0xff, 0xff, 0xff, 0x07, 0x01, 0x00, 0x02, 0x00, 0x04, 0x01, 0x00,
   0x02, 0x00, 0x04, 0x19, 0xe0, 0x7a, 0xc0, 0x04, 0x01, 0x00, 0x02, 0x00,
   0x04, 0xff, 0xff, 0xff, 0xff, 0x07, 0x01, 0x00, 0x02, 0x00, 0x04, 0x01,
   0x00, 0x02, 0x00, 0x04, 0x01, 0x00, 0x02, 0x00, 0x04, 0x01, 0x00, 0x02,
   0x00, 0x04, 0x03, 0x00, 0x02, 0x00, 0x06, 0x07, 0x00, 0xe2, 0x7f, 0x07,
   0x03, 0x00, 0x22, 0x40, 0x06, 0x01, 0x00, 0x22, 0x40, 0x04, 0x01, 0x00,
   0x22, 0x40, 0x04, 0x01, 0x00, 0x22, 0x40, 0x04, 0x01, 0x00, 0xe2, 0x7f,
   0x04, 0x01, 0x00, 0x02, 0x00, 0x04, 0x01, 0x00, 0x02, 0x00, 0x04, 0x01,
   0xc0, 0x1a, 0x00, 0x04, 0x01, 0x80, 0x0a, 0x00, 0x04, 0x01, 0x80, 0x0a,
   0x00, 0x04, 0x01, 0x80, 0x0a, 0x00, 0x04, 0x01, 0xc0, 0x1a, 0x00, 0x04,
   0x01, 0x00, 0x02, 0x00, 0x04, 0x01, 0x00, 0x02, 0x00, 0x04, 0x01, 0x00,
   0x02, 0x00, 0x04, 0x01, 0x00, 0x02, 0x00, 0x04, 0x01, 0x00, 0x02, 0x00,
   0x04, 0x01, 0x00, 0x02, 0x00, 0x04, 0x01, 0x00, 0x02, 0x00, 0x04, 0x01,
   0x00, 0x02, 0x00, 0x04, 0x01, 0x00, 0x02, 0x00, 0x04, 0x03, 0x00, 0x02,
   0x00, 0x06, 0x57, 0x55, 0x52, 0x55, 0x07, 0x53, 0x55, 0x52, 0x55, 0x06,
   0x51, 0x55, 0x52, 0x55, 0x04, 0x01, 0x00, 0x02, 0x00, 0x04, 0x01, 0x00,
   0x02, 0x00, 0x04, 0xff, 0xff, 0xff, 0xff, 0x07};
