#define mac_width 26
#define mac_height 33
static unsigned char mac_bits[] = {
   0x00, 0x00, 0x00, 0x00, 0xfc, 0xff, 0xff, 0x00, 0x02, 0x00, 0x00, 0x01,
   0x02, 0x00, 0x00, 0x01, 0xe2, 0xff, 0x1f, 0x01, 0x12, 0x00, 0x20, 0x01,
   0x12, 0x00, 0x20, 0x01, 0x12, 0x00, 0x20, 0x01, 0x12, 0x22, 0x21, 0x01,
   0x12, 0x22, 0x21, 0x01, 0x12, 0x20, 0x20, 0x01, 0x12, 0x30, 0x20, 0x01,
   0x12, 0x00, 0x20, 0x01, 0x12, 0x84, 0x20, 0x01, 0x12, 0x78, 0x20, 0x01,
   0x12, 0x00, 0x20, 0x01, 0x12, 0x00, 0x20, 0x01, 0xe2, 0xff, 0x1f, 0x01,
   0x02, 0x00, 0x00, 0x01, 0x02, 0x00, 0x00, 0x01, 0x02, 0x00, 0x00, 0x01,
   0x02, 0x00, 0x00, 0x01, 0x32, 0x80, 0x3f, 0x01, 0x02, 0x00, 0x00, 0x01,
   0x02, 0x00, 0x00, 0x01, 0x02, 0x00, 0x00, 0x01, 0x02, 0x00, 0x00, 0x01,
   0xfc, 0xff, 0xff, 0x00, 0x04, 0x00, 0x80, 0x00, 0x04, 0x00, 0x80, 0x00,
   0x04, 0x00, 0x80, 0x00, 0xfc, 0xff, 0xff, 0x00, 0x00, 0x00, 0x00, 0x00};
