#define modemMask_width 29
#define modemMask_height 12
static unsigned char modemMask_bits[] = {
   0x00, 0xff, 0x1f, 0x00, 0xe0, 0xff, 0xff, 0x00, 0xf0, 0xff, 0xff, 0x01,
   0xf0, 0xff, 0xff, 0x01, 0xf0, 0xff, 0xff, 0x01, 0xf8, 0xff, 0xff, 0x03,
   0xfc, 0xff, 0xff, 0x07, 0xff, 0xff, 0xff, 0x1f, 0xff, 0xff, 0xff, 0x1f,
   0xff, 0xff, 0xff, 0x1f, 0xff, 0xff, 0xff, 0x1f, 0xff, 0xff, 0xff, 0x1f};
