#define NFS-serverMask_width 13
#define NFS-serverMask_height 24
static unsigned char NFS-serverMask_bits[] = {
   0xf0, 0x01, 0xfc, 0x07, 0xfe, 0x0f, 0xfe, 0x0f, 0xff, 0x1f, 0xff, 0x1f,
   0xff, 0x1f, 0xff, 0x1f, 0xff, 0x1f, 0xff, 0x1f, 0xff, 0x1f, 0xff, 0x1f,
   0xff, 0x1f, 0xff, 0x1f, 0xff, 0x1f, 0xff, 0x1f, 0xff, 0x1f, 0xff, 0x1f,
   0xff, 0x1f, 0xff, 0x1f, 0xfe, 0x0f, 0xfe, 0x0f, 0xfc, 0x07, 0xf0, 0x01};
