#define NFS-clientMask_width 16
#define NFS-clientMask_height 16
static unsigned char NFS-clientMask_bits[] = {
   0x80, 0x03, 0xc0, 0x07, 0xc0, 0x0f, 0xc0, 0x17, 0xa0, 0x23, 0x10, 0x40,
   0x0e, 0x80, 0x1f, 0x80, 0x1f, 0x00, 0x1f, 0x00, 0x0e, 0x00, 0x04, 0x00,
   0x08, 0x00, 0x10, 0x00, 0x20, 0x00, 0xc0, 0x00};
