#define NFS-client_width 16
#define NFS-client_height 16
static unsigned char NFS-client_bits[] = {
   0x80, 0x03, 0x40, 0x04, 0x40, 0x0c, 0x40, 0x14, 0xa0, 0x23, 0x10, 0x40,
   0x0e, 0x80, 0x11, 0x80, 0x11, 0x00, 0x11, 0x00, 0x0e, 0x00, 0x04, 0x00,
   0x08, 0x00, 0x10, 0x00, 0x20, 0x00, 0xc0, 0x00};
