#define octane_width 17
#define octane_height 22
static unsigned char octane_bits[] = {
   0xfe, 0xff, 0x00, 0x21, 0x00, 0x01, 0x11, 0x00, 0x01, 0x11, 0x00, 0x01,
   0x09, 0x00, 0x01, 0x09, 0x00, 0x01, 0x09, 0x00, 0x01, 0xc9, 0x7f, 0x01,
   0x09, 0x00, 0x01, 0x09, 0x00, 0x01, 0x11, 0x00, 0x01, 0x11, 0x00, 0x01,
   0x11, 0x00, 0x01, 0x21, 0x00, 0x01, 0x21, 0x00, 0x01, 0x21, 0x7d, 0x01,
   0x21, 0x01, 0x01, 0x41, 0x00, 0x01, 0x41, 0x00, 0x01, 0xff, 0xff, 0x01,
   0x01, 0x00, 0x01, 0xfe, 0xff, 0x00};
