#define parsytec_width 10
#define parsytec_height 32
static unsigned char parsytec_bits[] = {
   0xfc, 0x00, 0x84, 0x00, 0x87, 0x03, 0x85, 0x02, 0x85, 0x02, 0x85, 0x02,
   0x85, 0x02, 0x85, 0x02, 0x85, 0x02, 0x85, 0x02, 0x85, 0x02, 0x85, 0x02,
   0x85, 0x02, 0x85, 0x02, 0x85, 0x02, 0x85, 0x02, 0x85, 0x02, 0x85, 0x02,
   0x85, 0x02, 0x85, 0x02, 0x85, 0x02, 0x85, 0x02, 0x85, 0x02, 0x85, 0x02,
   0xfd, 0x02, 0x01, 0x02, 0xff, 0x03, 0x01, 0x02, 0x01, 0x02, 0x01, 0x02,
   0xff, 0x03, 0x03, 0x03};
