#define phoneMask_width 21
#define phoneMask_height 16
static unsigned char phoneMask_bits[] = {
   0xf0, 0xff, 0x01, 0xfe, 0xff, 0x0f, 0xff, 0xff, 0x1f, 0xff, 0xff, 0x1f,
   0xff, 0xff, 0x1f, 0xff, 0xff, 0x1f, 0xfe, 0xff, 0x0f, 0xf8, 0xff, 0x03,
   0xf8, 0xff, 0x03, 0xf8, 0xff, 0x03, 0xf8, 0xff, 0x03, 0xf8, 0xff, 0x03,
   0xf8, 0xff, 0x03, 0xf8, 0xff, 0x03, 0xf8, 0xff, 0x03, 0xf8, 0xff, 0x03};
