#define phone_width 21
#define phone_height 16
static unsigned char phone_bits[] = {
   0xf0, 0xff, 0x01, 0x0e, 0x00, 0x0e, 0x01, 0x00, 0x10, 0xe1, 0xff, 0x10,
   0x11, 0x00, 0x11, 0x11, 0x0e, 0x11, 0x0e, 0x11, 0x0e, 0x88, 0x24, 0x02,
   0x48, 0x51, 0x02, 0x48, 0x40, 0x02, 0x48, 0x51, 0x02, 0x88, 0x24, 0x02,
   0x08, 0x31, 0x02, 0x08, 0x0e, 0x02, 0x08, 0x00, 0x02, 0xf8, 0xff, 0x03};
