#define reference_width 43
#define reference_height 23
static unsigned char reference_bits[] = {
   0x00, 0x00, 0x00, 0x0e, 0x00, 0x00, 0x00, 0x00, 0x00, 0x0a, 0x00, 0x00,
   0x00, 0x00, 0x80, 0x11, 0x00, 0x00, 0x00, 0x00, 0xc0, 0x10, 0x00, 0x00,
   0x00, 0x00, 0x70, 0x10, 0x00, 0x00, 0x00, 0x00, 0x1c, 0xf8, 0x0f, 0x00,
   0x00, 0x00, 0x07, 0x00, 0xf0, 0x01, 0x1e, 0xc0, 0x01, 0x00, 0x00, 0x06,
   0xfe, 0x7d, 0x00, 0x00, 0x00, 0x04, 0x82, 0x05, 0x00, 0x00, 0x00, 0x07,
   0x82, 0x03, 0x00, 0xe0, 0xff, 0x01, 0x82, 0x02, 0x00, 0x80, 0x01, 0x00,
   0x83, 0x02, 0x00, 0x00, 0x01, 0x00, 0x83, 0x02, 0x00, 0x00, 0x01, 0x00,
   0x83, 0x02, 0x00, 0x80, 0x01, 0x00, 0x83, 0x02, 0x00, 0xf0, 0x00, 0x00,
   0x83, 0x02, 0x00, 0x80, 0x00, 0x00, 0x82, 0x02, 0x00, 0x80, 0x00, 0x00,
   0x92, 0x02, 0x00, 0xc0, 0x00, 0x00, 0xba, 0x07, 0x00, 0x70, 0x00, 0x00,
   0x12, 0xfd, 0x00, 0x60, 0x00, 0x00, 0x02, 0x81, 0x03, 0x38, 0x00, 0x00,
   0xfe, 0x01, 0xfe, 0x1f, 0x00, 0x00};
