#define ring_width 70
#define ring_height 71
static unsigned char ring_bits[] = {
   0x00, 0x00, 0x00, 0xe0, 0x03, 0x00, 0x00, 0x00, 0x00, 0x00, 0x00, 0x00,
   0x20, 0x02, 0x00, 0x00, 0x00, 0x00, 0x00, 0x00, 0x00, 0x20, 0x02, 0x00,
   0x00, 0x00, 0x00, 0x00, 0x00, 0x00, 0x20, 0x02, 0x00, 0xf8, 0x00, 0x00,
   0x00, 0x00, 0x00, 0xe0, 0x03, 0x00, 0x88, 0x00, 0x00, 0x00, 0x3e, 0x00,
   0xf0, 0x07, 0x00, 0x88, 0x00, 0x00, 0x00, 0x22, 0x00, 0xf8, 0x0f, 0x00,
   0x88, 0x00, 0x00, 0x00, 0x22, 0x00, 0x80, 0x00, 0x00, 0xf8, 0x00, 0x00,
   0x00, 0x22, 0x00, 0x80, 0x00, 0x00, 0xfc, 0x01, 0x00, 0x00, 0x3e, 0x00,
   0xe0, 0xff, 0x03, 0xfe, 0x03, 0x00, 0x00, 0x7f, 0x00, 0xfc, 0xff, 0x1f,
   0x20, 0x00, 0x00, 0x80, 0xff, 0x80, 0x3f, 0x00, 0xfe, 0x10, 0x00, 0x00,
   0x00, 0x10, 0xc0, 0x07, 0x00, 0xf0, 0x09, 0x00, 0x00, 0x00, 0x20, 0xf0,
   0x00, 0x00, 0x80, 0x07, 0x00, 0x00, 0x00, 0x40, 0x78, 0x00, 0x00, 0x00,
   0x0f, 0x00, 0x00, 0x00, 0x80, 0x1e, 0x00, 0x00, 0x00, 0x3c, 0x80, 0x0f,
   0x00, 0x00, 0x0f, 0x00, 0x00, 0x00, 0x78, 0x80, 0x08, 0x7c, 0x80, 0x03,
   0x00, 0x00, 0x00, 0xe0, 0x80, 0x08, 0x44, 0x80, 0x01, 0x00, 0x00, 0x00,
   0xc0, 0x80, 0x08, 0x44, 0xc0, 0x01, 0x00, 0x00, 0x00, 0xc0, 0x81, 0x08,
   0x44, 0xe0, 0x00, 0x00, 0x00, 0x00, 0x80, 0xc3, 0x1f, 0x7c, 0x60, 0x00,
   0x00, 0x00, 0x00, 0x00, 0xe3, 0x3f, 0xfe, 0x70, 0x00, 0x00, 0x00, 0x00,
   0x00, 0x07, 0x01, 0xff, 0x39, 0x00, 0x00, 0x00, 0x00, 0x00, 0x8e, 0x00,
   0x00, 0x1a, 0x00, 0x00, 0x00, 0x00, 0x00, 0x4c, 0x00, 0x00, 0x1c, 0x00,
   0x00, 0x00, 0x00, 0x00, 0x2c, 0x00, 0x00, 0x1c, 0x00, 0x00, 0x00, 0x00,
   0x00, 0x1c, 0x00, 0x00, 0x0c, 0x00, 0x00, 0x00, 0x00, 0x00, 0x18, 0x00,
   0x00, 0x0c, 0x00, 0x00, 0x00, 0x00, 0x00, 0x18, 0x00, 0x00, 0x0e, 0x00,
   0x00, 0x00, 0x00, 0x00, 0x38, 0x00, 0x00, 0x06, 0x00, 0x00, 0x00, 0x00,
   0x00, 0x30, 0x00, 0x00, 0x06, 0x00, 0x00, 0x00, 0x00, 0x00, 0x30, 0x00,
   0x00, 0x06, 0x00, 0x00, 0x00, 0x00, 0x00, 0x30, 0x00, 0x00, 0x06, 0x00,
   0x00, 0x00, 0x00, 0x00, 0x30, 0x00, 0x00, 0x06, 0x00, 0x00, 0x00, 0x00,
   0x00, 0x30, 0x00, 0x00, 0x06, 0x00, 0x00, 0x00, 0x00, 0x00, 0x30, 0x00,
   0x00, 0x06, 0x00, 0x00, 0x00, 0x00, 0x00, 0x30, 0x00, 0x00, 0x06, 0x00,
   0x00, 0x00, 0x00, 0x00, 0x30, 0x00, 0x00, 0x06, 0x00, 0x00, 0x00, 0x00,
   0x00, 0x30, 0x00, 0x00, 0x06, 0x00, 0x00, 0x00, 0x00, 0x00, 0x30, 0x00,
   0x00, 0x06, 0x00, 0x00, 0x00, 0x00, 0x00, 0x30, 0x00, 0x00, 0x0e, 0x00,
   0x00, 0x00, 0x00, 0x00, 0x38, 0x00, 0x7c, 0x0c, 0x00, 0x00, 0x00, 0x00,
   0x00, 0x18, 0x00, 0xc4, 0x0f, 0x00, 0x00, 0x00, 0x00, 0x00, 0x18, 0x00,
   0x44, 0x1c, 0x00, 0x00, 0x00, 0x00, 0x00, 0x1c, 0x00, 0x44, 0x18, 0x00,
   0x00, 0x00, 0x00, 0x00, 0x0c, 0x00, 0x7c, 0x18, 0x00, 0x00, 0x00, 0x00,
   0x00, 0x0c, 0x00, 0xfe, 0x38, 0x00, 0x00, 0x00, 0x00, 0x00, 0x0e, 0x00,
   0xff, 0x71, 0x00, 0x00, 0x00, 0x00, 0x00, 0x07, 0x00, 0x00, 0x60, 0x00,
   0x00, 0x00, 0x00, 0x00, 0x07, 0x00, 0x00, 0xe0, 0x00, 0x00, 0x00, 0x00,
   0x80, 0x0b, 0x00, 0x00, 0xc0, 0x01, 0x00, 0x00, 0x00, 0xc0, 0xf1, 0x01,
   0x00, 0xe0, 0x01, 0x00, 0x00, 0x00, 0xc0, 0x10, 0x01, 0x00, 0x90, 0x03,
   0x00, 0x00, 0x00, 0xe0, 0x10, 0x01, 0x00, 0x08, 0x0f, 0x00, 0x00, 0x00,
   0x78, 0x10, 0x01, 0xc0, 0x07, 0x1e, 0x00, 0x00, 0x00, 0x3c, 0xf0, 0x01,
   0x40, 0x04, 0x78, 0x00, 0x00, 0x00, 0x0f, 0xf8, 0x03, 0x40, 0x04, 0xf0,
   0x00, 0x00, 0x80, 0x07, 0xfc, 0x07, 0x40, 0x04, 0xc0, 0x07, 0x00, 0xf0,
   0x01, 0x00, 0x00, 0xc0, 0x07, 0x80, 0x3f, 0x00, 0xfe, 0x00, 0x00, 0x00,
   0xe0, 0x0f, 0x00, 0xfe, 0xff, 0x1f, 0x00, 0x00, 0x00, 0xf0, 0x1f, 0x00,
   0xe1, 0xff, 0x0b, 0x00, 0x00, 0x00, 0x00, 0x00, 0x80, 0x00, 0x00, 0x08,
   0x00, 0x00, 0x00, 0x00, 0x00, 0xf0, 0x01, 0x00, 0x08, 0x00, 0x00, 0x00,
   0x00, 0x00, 0x10, 0x01, 0x00, 0x3e, 0x00, 0x00, 0x00, 0x00, 0x00, 0x10,
   0x01, 0x00, 0x22, 0x00, 0x00, 0x00, 0x00, 0x00, 0x10, 0x01, 0x00, 0x22,
   0x00, 0x00, 0x00, 0x00, 0x00, 0xf0, 0x01, 0x00, 0x22, 0x00, 0x00, 0x00,
   0x00, 0x00, 0xf8, 0x03, 0x00, 0x3e, 0x00, 0x00, 0x00, 0x00, 0x00, 0xfc,
   0x07, 0x00, 0x7f, 0x00, 0x00, 0x00, 0x00, 0x00, 0x00, 0x00, 0x80, 0xff,
   0x00, 0x00, 0x00};
