#define RS6000_width 33
#define RS6000_height 30
static unsigned char RS6000_bits[] = {
   0xfe, 0xff, 0xff, 0xff, 0x00, 0x02, 0x00, 0x00, 0x80, 0x00, 0xf2, 0xff,
   0xff, 0x9f, 0x00, 0x0a, 0x00, 0x00, 0xa0, 0x00, 0x0a, 0x00, 0x00, 0xa0,
   0x00, 0x4a, 0x27, 0x02, 0xa0, 0x00, 0x4a, 0x69, 0x83, 0xa4, 0x00, 0x4a,
   0xaf, 0x02, 0xa2, 0x00, 0x4a, 0x29, 0x82, 0xa4, 0x00, 0x4a, 0x27, 0x02,
   0xa0, 0x00, 0x0a, 0x00, 0x00, 0xa0, 0x00, 0x0a, 0x00, 0x00, 0xa0, 0x00,
   0x0a, 0x00, 0x00, 0xa0, 0x00, 0x0a, 0x00, 0x00, 0xa0, 0x00, 0x0a, 0x00,
   0x00, 0xa0, 0x00, 0xea, 0x2e, 0xee, 0xae, 0x00, 0xaa, 0x22, 0xaa, 0xaa,
   0x00, 0x6a, 0xee, 0xaa, 0xaa, 0x00, 0xaa, 0xa8, 0xaa, 0xaa, 0x00, 0xaa,
   0xee, 0xee, 0xae, 0x00, 0x0a, 0x00, 0x00, 0xa0, 0x00, 0xf2, 0xff, 0xff,
   0x9f, 0x00, 0x02, 0x00, 0x00, 0x80, 0x00, 0xfe, 0xff, 0xff, 0xff, 0x00,
   0x00, 0xf8, 0x3f, 0x00, 0x00, 0xff, 0xff, 0xff, 0xff, 0x01, 0x01, 0x00,
   0x00, 0x00, 0x01, 0xed, 0x01, 0x00, 0x00, 0x01, 0x01, 0x00, 0x00, 0x00,
   0x01, 0xff, 0xff, 0xff, 0xff, 0x01};
