#define world_width 49
#define world_height 49
static unsigned char world_bits[] = {
   0x00, 0x00, 0xfc, 0x7f, 0x00, 0x00, 0x00, 0x00, 0x80, 0x03, 0x80, 0x03,
   0x00, 0x00, 0x00, 0x60, 0x00, 0x04, 0x0c, 0x00, 0x00, 0x00, 0x18, 0x20,
   0x40, 0x30, 0x00, 0x00, 0x00, 0x74, 0x4c, 0x18, 0x42, 0x00, 0x00, 0x00,
   0xdf, 0xb3, 0xc3, 0xa2, 0x01, 0x00, 0x80, 0x06, 0x00, 0x44, 0x60, 0x02,
   0x00, 0xc0, 0x03, 0x00, 0x18, 0xc0, 0x04, 0x00, 0x60, 0x00, 0x00, 0x60,
   0x80, 0x08, 0x00, 0xe0, 0x07, 0x00, 0x80, 0x00, 0x09, 0x00, 0x10, 0x04,
   0x00, 0x80, 0x00, 0x17, 0x00, 0x28, 0x0c, 0x00, 0x00, 0x01, 0x3c, 0x00,
   0x28, 0x04, 0x00, 0x00, 0x01, 0x20, 0x00, 0x04, 0x04, 0x00, 0x00, 0x01,
   0x40, 0x00, 0x0c, 0x08, 0x00, 0x00, 0x01, 0x40, 0x00, 0x02, 0x08, 0x00,
   0x00, 0x03, 0x80, 0x00, 0x02, 0x08, 0x00, 0x00, 0x02, 0x80, 0x00, 0x02,
   0x78, 0x00, 0x00, 0x02, 0x80, 0x00, 0x01, 0x60, 0x00, 0x00, 0x03, 0x00,
   0x01, 0x21, 0xe0, 0xc0, 0x03, 0x01, 0x00, 0x01, 0x01, 0xc0, 0x33, 0x84,
   0x00, 0x00, 0x01, 0x01, 0x00, 0x16, 0xd8, 0x00, 0x00, 0x01, 0x01, 0x00,
   0x14, 0x50, 0x00, 0x00, 0x01, 0x01, 0x00, 0x1c, 0x70, 0x00, 0x00, 0x01,
   0x01, 0x00, 0x14, 0x20, 0x00, 0x00, 0x01, 0x01, 0x00, 0x7c, 0x8c, 0x00,
   0x80, 0x01, 0x01, 0x00, 0xc4, 0x00, 0x00, 0x70, 0x01, 0x01, 0x00, 0x86,
   0x01, 0x00, 0x10, 0x01, 0x07, 0x00, 0x02, 0x0f, 0x00, 0x08, 0x01, 0x05,
   0x00, 0x03, 0x18, 0x00, 0x08, 0x01, 0x09, 0x00, 0x01, 0x10, 0x00, 0x10,
   0x01, 0x0a, 0x00, 0x01, 0x30, 0x00, 0x90, 0x00, 0x0a, 0x00, 0x03, 0x60,
   0x00, 0x90, 0x00, 0x0a, 0x00, 0x02, 0x40, 0x00, 0x90, 0x00, 0x0c, 0x00,
   0x06, 0x20, 0x00, 0x60, 0x00, 0x14, 0x00, 0x04, 0x20, 0x00, 0x60, 0x00,
   0x18, 0x00, 0x04, 0x10, 0x00, 0x20, 0x00, 0x08, 0x00, 0x04, 0x08, 0x00,
   0x20, 0x00, 0x10, 0x00, 0x04, 0x04, 0x00, 0x30, 0x00, 0x20, 0x00, 0x04,
   0x04, 0x00, 0x08, 0x00, 0x20, 0x00, 0x0c, 0x02, 0x00, 0x08, 0x00, 0x40,
   0x00, 0x08, 0x01, 0x00, 0x04, 0x00, 0x80, 0x00, 0x88, 0x00, 0x00, 0x02,
   0x00, 0x00, 0x03, 0x48, 0x00, 0x80, 0x01, 0x00, 0x00, 0x04, 0x28, 0x00,
   0x40, 0x00, 0x00, 0x00, 0x18, 0x18, 0x00, 0x30, 0x00, 0x00, 0x00, 0x60,
   0x08, 0x00, 0x0c, 0x00, 0x00, 0x00, 0x80, 0xc3, 0x8f, 0x03, 0x00, 0x00,
   0x00, 0x00, 0xfc, 0x7f, 0x00, 0x00, 0x00};
