#define zoomin_width 13
#define zoomin_height 14
static unsigned char zoomin_bits[] = {
   0x04, 0x04, 0x44, 0x04, 0x44, 0x04, 0xfc, 0x07, 0x44, 0x04, 0x44, 0x04,
   0x44, 0x04, 0xe0, 0x00, 0xf0, 0x01, 0xf8, 0x03, 0xf8, 0x03, 0xf8, 0x03,
   0xf0, 0x01, 0xe0, 0x00};
